<svg xmlns="http://www.w3.org/2000/svg" xmlns:xlink="http://www.w3.org/1999/xlink" width="2000" zoomAndPan="magnify" viewBox="0 0 1500 1499.999933" height="2000" preserveAspectRatio="xMidYMid meet" version="1.0"><defs><g/><clipPath id="df149caa5b"><rect x="0" width="1084" y="0" height="249"/></clipPath></defs><g transform="matrix(1, 0, 0, 1, 212, 625)"><g clip-path="url(#df149caa5b)"><g fill="#c87a5e" fill-opacity="1"><g transform="translate(0.846335, 198.65305)"><g><path d="M 46.984375 -58.875 L 46.984375 0 L 16.90625 0 L 16.90625 -145.40625 L 46.984375 -145.40625 L 46.984375 -88.015625 L 107.890625 -88.015625 L 107.890625 -145.40625 L 137.984375 -145.40625 L 137.984375 0 L 107.890625 0 L 107.890625 -58.875 Z M 46.984375 -58.875 "/></g></g></g><g fill="#c87a5e" fill-opacity="1"><g transform="translate(163.521955, 198.65305)"><g><path d="M 7.984375 -72.609375 C 7.984375 -83.003906 9.960938 -92.75 13.921875 -101.84375 C 17.890625 -110.945312 23.335938 -118.9375 30.265625 -125.8125 C 37.203125 -132.6875 45.28125 -138.039062 54.5 -141.875 C 63.726562 -145.71875 73.539062 -147.640625 83.9375 -147.640625 C 94.332031 -147.640625 104.078125 -145.75 113.171875 -141.96875 C 122.273438 -138.195312 130.265625 -132.9375 137.140625 -126.1875 C 144.015625 -119.4375 149.367188 -111.539062 153.203125 -102.5 C 157.046875 -93.46875 158.96875 -83.753906 158.96875 -73.359375 C 158.96875 -62.828125 157.015625 -52.976562 153.109375 -43.8125 C 149.210938 -34.65625 143.765625 -26.609375 136.765625 -19.671875 C 129.773438 -12.742188 121.695312 -7.359375 112.53125 -3.515625 C 103.375 0.316406 93.59375 2.234375 83.1875 2.234375 C 72.789062 2.234375 63.039062 0.316406 53.9375 -3.515625 C 44.84375 -7.359375 36.859375 -12.6875 29.984375 -19.5 C 23.117188 -26.3125 17.734375 -34.234375 13.828125 -43.265625 C 9.929688 -52.304688 7.984375 -62.085938 7.984375 -72.609375 Z M 38.8125 -72.796875 C 38.8125 -64.503906 40.789062 -56.859375 44.75 -49.859375 C 48.71875 -42.867188 54.101562 -37.296875 60.90625 -33.140625 C 67.71875 -28.992188 75.269531 -26.921875 83.5625 -26.921875 C 91.976562 -26.921875 99.5625 -28.992188 106.3125 -33.140625 C 113.0625 -37.296875 118.414062 -42.867188 122.375 -49.859375 C 126.34375 -56.859375 128.328125 -64.503906 128.328125 -72.796875 C 128.328125 -81.210938 126.34375 -88.851562 122.375 -95.71875 C 118.414062 -102.59375 113.0625 -108.101562 106.3125 -112.25 C 99.5625 -116.40625 91.976562 -118.484375 83.5625 -118.484375 C 75.269531 -118.484375 67.71875 -116.40625 60.90625 -112.25 C 54.101562 -108.101562 48.71875 -102.59375 44.75 -95.71875 C 40.789062 -88.851562 38.8125 -81.210938 38.8125 -72.796875 Z M 38.8125 -72.796875 "/></g></g></g><g fill="#c87a5e" fill-opacity="1"><g transform="translate(338.268219, 198.65305)"><g><path d="M 147.453125 -96.015625 L 106.96875 0 L 86.90625 0 L 46.609375 -95.265625 L 46.421875 -95.265625 L 46.421875 0 L 16.90625 0 L 16.90625 -145.40625 L 55.703125 -145.40625 L 96.9375 -47.90625 L 137.421875 -145.40625 L 177.34375 -145.40625 L 177.34375 0 L 147.640625 0 L 147.640625 -96.015625 Z M 147.453125 -96.015625 "/></g></g></g><g fill="#c87a5e" fill-opacity="1"><g transform="translate(540.312709, 198.65305)"><g><path d="M 47.546875 0 L 47.546875 -116.25 L 3.90625 -116.25 L 3.90625 -145.40625 L 121.078125 -145.40625 L 121.078125 -116.25 L 77.4375 -116.25 L 77.4375 0 Z M 47.546875 0 "/></g></g></g><g fill="#c87a5e" fill-opacity="1"><g transform="translate(673.090242, 198.65305)"><g><path d="M 46.984375 -145.40625 L 46.984375 0 L 16.90625 0 L 16.90625 -145.40625 Z M 46.984375 -145.40625 "/></g></g></g><g fill="#c87a5e" fill-opacity="1"><g transform="translate(744.957443, 198.65305)"><g><path d="M 46.609375 -100.28125 L 46.609375 0 L 16.90625 0 L 16.90625 -145.40625 L 51.25 -145.40625 L 114.390625 -50.515625 L 114.390625 -145.40625 L 144.109375 -145.40625 L 144.109375 0 L 113.46875 0 Z M 46.609375 -100.28125 "/></g></g></g><g fill="#c87a5e" fill-opacity="1"><g transform="translate(913.946954, 198.65305)"><g><path d="M 46.609375 -100.28125 L 46.609375 0 L 16.90625 0 L 16.90625 -145.40625 L 51.25 -145.40625 L 114.390625 -50.515625 L 114.390625 -145.40625 L 144.109375 -145.40625 L 144.109375 0 L 113.46875 0 Z M 46.609375 -100.28125 "/></g></g></g></g></g></svg>